<svg xmlns="http://www.w3.org/2000/svg" viewBox="0 15.149999618530273 260.6300048828125 44.80000686645508" data-asc="0.99" width="260.6300048828125" height="44.80000686645508"><defs/><g fill="#c41230"><g transform="translate(0, 0)"><path d="M3.20 18L3.20 30.57L16.20 30.57L16.20 33.50L3.20 33.50L3.20 46.73L19.23 46.73L19.23 49.50L0 49.50L0 15.15L18.65 15.15L18.23 18L3.20 18ZM45.40 22.77Q46.48 22.77 47.63 23.26Q48.78 23.75 49.58 25.27Q50.38 26.80 50.38 29.92L50.38 49.50L47.33 49.50L47.33 30.52Q47.33 27.72 47.01 26.47Q46.70 25.22 45.10 25.22Q43.75 25.22 42.44 26.06Q41.13 26.90 39.95 28.80L39.95 49.50L36.50 49.50L36.50 30.52Q36.50 27.72 36.19 26.47Q35.88 25.22 34.27 25.22Q32.88 25.22 31.59 26.06Q30.30 26.90 29.13 28.80L29.13 49.50L26.13 49.50L26.13 23.25L28.68 23.25L28.85 26.42Q29.88 24.95 31.24 23.86Q32.60 22.77 34.63 22.77Q36.13 22.77 37.54 23.49Q38.95 24.20 39.63 26.35Q40.65 24.75 41.98 23.76Q43.30 22.77 45.40 22.77ZM75.40 22.77Q76.47 22.77 77.63 23.26Q78.78 23.75 79.58 25.27Q80.38 26.80 80.38 29.92L80.38 49.50L77.33 49.50L77.33 30.52Q77.33 27.72 77.01 26.47Q76.70 25.22 75.10 25.22Q73.75 25.22 72.44 26.06Q71.13 26.90 69.95 28.80L69.95 49.50L66.50 49.50L66.50 30.52Q66.50 27.72 66.19 26.47Q65.88 25.22 64.28 25.22Q62.88 25.22 61.59 26.06Q60.30 26.90 59.13 28.80L59.13 49.50L56.13 49.50L56.13 23.25L58.67 23.25L58.85 26.42Q59.88 24.95 61.24 23.86Q62.60 22.77 64.63 22.77Q66.13 22.77 67.54 23.49Q68.95 24.20 69.63 26.35Q70.65 24.75 71.97 23.76Q73.30 22.77 75.40 22.77ZM106.55 44.33Q106.55 45.92 107.10 46.66Q107.65 47.40 108.80 47.75L107.95 50.02Q106.45 49.80 105.28 48.92Q104.10 48.05 103.63 46.25Q102.25 48.08 100.19 49.04Q98.13 50 95.53 50Q91.63 50 89.40 47.80Q87.17 45.60 87.17 41.92Q87.17 37.92 90.29 35.80Q93.40 33.67 99.35 33.67L103.33 33.67L103.33 31.13Q103.33 28.05 101.56 26.81Q99.80 25.57 96.75 25.57Q95.42 25.57 93.75 25.88Q92.08 26.17 90.03 26.90L89.13 24.35Q91.50 23.47 93.44 23.13Q95.38 22.77 97.20 22.77Q101.83 22.77 104.19 25.04Q106.55 27.30 106.55 31.02L106.55 44.33M96.13 47.52Q98.28 47.52 100.15 46.48Q102.03 45.42 103.33 43.55L103.33 36.05L98.97 36.05Q94.30 36.05 92.45 37.69Q90.60 39.33 90.60 42.02Q90.60 44.75 91.95 46.14Q93.30 47.52 96.13 47.52ZM167.07 32.15Q167.07 27.35 166.01 24.51Q164.95 21.67 163.25 20.27Q161.55 18.88 159.59 18.42Q157.63 17.97 155.80 17.97L151.07 17.97L151.07 46.75L155.88 46.75Q157.78 46.75 159.74 46.15Q161.70 45.55 163.36 43.98Q165.03 42.40 166.05 39.54Q167.07 36.67 167.07 32.15M170.55 32.15Q170.55 36.50 169.63 39.54Q168.70 42.58 167.14 44.54Q165.57 46.50 163.60 47.58Q161.63 48.65 159.49 49.08Q157.35 49.50 155.35 49.50L147.90 49.50L147.90 15.15L154.82 15.15Q157.75 15.15 160.55 15.81Q163.35 16.48 165.61 18.29Q167.88 20.10 169.21 23.44Q170.55 26.77 170.55 32.15ZM188.32 22.77Q191.93 22.77 194.32 24.45Q196.72 26.13 197.91 29.17Q199.10 32.22 199.10 36.38Q199.10 40.27 197.88 43.35Q196.65 46.42 194.24 48.21Q191.82 50 188.25 50Q184.65 50 182.24 48.29Q179.82 46.58 178.61 43.51Q177.40 40.45 177.40 36.42Q177.40 32.40 178.63 29.32Q179.85 26.25 182.29 24.51Q184.72 22.77 188.32 22.77M188.32 25.50Q184.63 25.50 182.71 28.17Q180.80 30.85 180.80 36.42Q180.80 41.88 182.68 44.56Q184.55 47.25 188.25 47.25Q191.95 47.25 193.82 44.56Q195.70 41.88 195.70 36.38Q195.70 30.85 193.84 28.17Q191.97 25.50 188.32 25.50ZM208.72 49.50L208.72 23.25L211.32 23.25L211.57 27.07Q213.13 25.02 215.66 23.90Q218.20 22.77 220.40 22.77Q224.43 22.77 226.14 24.82Q227.85 26.88 227.85 30.50L227.85 49.50L224.75 49.50L224.75 33.83Q224.75 30.82 224.43 28.95Q224.10 27.07 223.03 26.21Q221.95 25.35 219.65 25.35Q217.90 25.35 216.36 26.11Q214.82 26.88 213.66 27.99Q212.50 29.10 211.82 30.15L211.82 49.50L208.72 49.50ZM259.48 20.88L260.63 24.27Q258.85 24.77 256.95 24.88Q255.05 24.97 252.90 24.97Q255.13 26 256.23 27.69Q257.32 29.38 257.32 31.52Q257.32 34.13 256.20 36.16Q255.07 38.20 252.96 39.35Q250.85 40.50 247.82 40.50Q246.35 40.50 245.43 40.36Q244.50 40.23 243.63 39.92Q243 40.40 242.56 41.17Q242.13 41.95 242.13 42.80Q242.13 43.83 242.94 44.50Q243.75 45.17 245.82 45.17L250.68 45.17Q253.20 45.17 255.26 46.10Q257.32 47.02 258.54 48.60Q259.75 50.17 259.75 52.15Q259.75 55.98 256.54 57.96Q253.32 59.95 247.65 59.95Q243.72 59.95 241.40 59.14Q239.07 58.33 238.06 56.61Q237.05 54.90 237.05 52.20L239.90 52.20Q239.90 53.85 240.54 54.92Q241.18 56 242.82 56.54Q244.47 57.08 247.55 57.08Q250.57 57.08 252.56 56.56Q254.55 56.05 255.55 55Q256.55 53.95 256.55 52.35Q256.55 50.27 254.63 49.25Q252.70 48.23 250 48.23L245.15 48.23Q242 48.23 240.50 46.75Q239 45.27 239 43.38Q239 42.17 239.71 41.01Q240.43 39.85 241.85 38.90Q239.68 37.75 238.60 36Q237.53 34.25 237.53 31.72Q237.53 29.15 238.80 27.13Q240.07 25.10 242.35 23.92Q244.63 22.75 247.63 22.75Q251.05 22.70 253.09 22.49Q255.13 22.27 256.54 21.88Q257.95 21.47 259.48 20.88M247.55 25.20Q244 25.20 242.36 27.07Q240.72 28.95 240.72 31.77Q240.72 34.58 242.40 36.46Q244.07 38.35 247.70 38.35Q250.72 38.35 252.32 36.60Q253.93 34.85 253.93 31.75Q253.93 28.55 252.32 26.88Q250.72 25.20 247.55 25.20Z"/></g></g></svg>
